<svg class="svg-icon" style="width: 1em; height: 1em;vertical-align: middle;fill: currentColor;overflow: hidden;" viewBox="0 0 1024 1024" version="1.1" xmlns="http://www.w3.org/2000/svg"><path d="M512 198.784c-247.424 0-448 200.576-448 448 0 63.36 13.184 123.712 36.992 178.368L170.24 825.152l683.456 0 52.672 0 16.576 0C946.752 770.496 960 710.208 960 646.784 960 399.36 759.36 198.784 512 198.784zM141.44 752.576c-9.6-33.536-14.912-68.992-14.912-105.728 0-212.928 172.544-385.472 385.472-385.472 212.8 0 385.408 172.544 385.408 385.472 0 36.736-5.248 72.192-14.848 105.728L141.44 752.576z"  /><path d="M473.984 305.536l52.48 0 0 88.768-52.48 0 0-88.768Z"  /><path d="M171.456 611.712l88.768 0 0 52.416-88.768 0 0-52.416Z"  /><path d="M760.832 611.712l88.704 0 0 52.416-88.704 0 0-52.416Z"  /><path d="M314.703635 361.87639l45.442432-26.250496 44.369741 76.808794-45.442432 26.250496-44.369741-76.808794Z"  /><path d="M643.423795 438.649754l-45.37129-26.249933 44.455014-76.837581 45.37129 26.249933-44.455014 76.837581Z"  /><path d="M215.77856 491.228768l26.250496-45.442432 76.808794 44.369741-26.250496 45.442432-76.808794-44.369741Z"  /><path d="M724.345094 535.616205l-26.250496-45.442432 76.753376-44.337728 26.250496 45.442432-76.753376 44.337728Z"  /><path d="M520.896 694.784 437.76 621.12l83.136-65.92c-5.568-1.216-11.328-1.792-17.28-1.792-45.632 0-82.624 36.992-82.624 82.624 0 45.568 36.992 82.56 82.624 82.56 45.568 0 82.496-36.992 82.496-82.56 0-6.784-0.896-13.312-2.368-19.648L520.896 694.784z"  /><path d="M477.376 611.712 731.2 405.056 520.96 660.672 475.904 614.208Z"  /></svg>